<?xml version="1.0" standalone="no"?>
<!DOCTYPE svg PUBLIC "-//W3C//DTD SVG 20010904//EN"
 "http://www.w3.org/TR/2001/REC-SVG-20010904/DTD/svg10.dtd">
<svg version="1.0" xmlns="http://www.w3.org/2000/svg"
 width="1920.000000pt" height="1920.000000pt" viewBox="0 0 1920.000000 1920.000000"
 preserveAspectRatio="xMidYMid meet">

<g transform="translate(0.000000,1920.000000) scale(0.100000,-0.100000)"
fill="#000000" stroke="none">
<path d="M9015 15753 c-319 -553 -587 -1014 -595 -1023 -10 -11 -72 -30 -178
-54 -2004 -454 -3637 -1848 -4400 -3756 -211 -530 -340 -1059 -409 -1690 -26
-236 -26 -949 0 -1195 46 -440 126 -834 252 -1241 l54 -178 -46 -80 c-25 -45
-282 -489 -569 -988 -288 -498 -524 -909 -524 -912 0 -3 512 -6 1138 -6 l1137
0 65 -77 c183 -215 514 -533 775 -743 496 -400 1074 -734 1655 -957 1346 -516
2849 -548 4205 -90 727 246 1395 620 1980 1107 257 214 468 419 709 690 l57
65 1140 5 1139 5 -456 790 c-251 435 -508 880 -571 990 l-115 199 51 166 c204
662 292 1291 278 1980 -6 287 -23 506 -58 750 -279 1959 -1474 3658 -3235
4598 -489 261 -1114 487 -1625 587 l-86 17 -50 87 c-83 145 -986 1708 -1057
1831 -37 63 -70 118 -74 122 -4 4 -268 -446 -587 -999z m639 -361 c28 -48 112
-194 188 -326 76 -131 138 -241 138 -245 0 -3 -87 -3 -193 1 -107 4 -278 4
-380 0 -103 -4 -187 -3 -187 2 0 12 373 656 379 656 3 0 28 -40 55 -88z m236
-1122 c181 -11 427 -34 434 -41 2 -2 365 -629 806 -1394 1054 -1826 1103
-1910 1380 -2390 284 -491 474 -819 1509 -2612 l791 -1372 -47 -108 c-58 -134
-189 -392 -272 -538 -54 -93 -302 -473 -344 -527 -14 -17 -242 -18 -4549 -18
l-4535 0 -76 107 c-189 272 -320 495 -468 798 -151 311 -145 267 -61 410 38
66 390 676 782 1355 392 679 970 1681 1285 2225 315 545 650 1125 745 1290 95
165 331 572 523 905 192 333 513 889 714 1237 319 554 368 632 391 637 45 9
250 27 392 35 206 12 396 12 600 1z m-1992 -452 c-217 -375 -1726 -2989 -3204
-5550 -313 -543 -572 -984 -575 -980 -10 11 -55 219 -84 391 -142 843 -95
1702 139 2517 187 652 498 1275 906 1819 319 424 733 837 1159 1154 399 297
895 569 1356 743 110 42 429 147 434 142 2 -2 -57 -108 -131 -236z m3465 177
c1192 -392 2233 -1183 2927 -2224 335 -501 598 -1077 754 -1647 126 -463 184
-880 193 -1385 7 -402 -10 -658 -68 -1019 -23 -145 -78 -409 -88 -428 -4 -8
-226 366 -566 955 -697 1207 -1172 2030 -2250 3898 -466 809 -904 1566 -972
1683 -67 117 -123 215 -123 218 0 10 38 1 193 -51z m-7289 -8162 c34 -73 160
-299 238 -427 43 -71 77 -130 75 -132 -2 -3 -157 -3 -345 -2 l-341 3 172 298
c95 163 174 297 178 297 3 0 13 -17 23 -37z m11177 -134 c50 -88 125 -218 165
-287 41 -70 74 -130 74 -134 0 -5 -155 -8 -344 -8 l-344 0 109 182 c60 100
137 235 170 300 33 65 64 116 69 113 5 -3 50 -78 101 -166z m-1786 -1176
c-134 -129 -316 -282 -490 -412 -743 -557 -1617 -922 -2535 -1060 -315 -47
-448 -56 -840 -56 -391 0 -524 9 -840 56 -982 147 -1902 548 -2678 1168 -129
104 -196 162 -416 363 l-51 47 3980 0 3980 0 -110 -106z"/>
<path d="M9370 10769 c-1498 -71 -2807 -857 -3380 -2027 l-54 -112 33 -68
c334 -684 879 -1226 1606 -1597 977 -499 2197 -610 3278 -300 1070 307 1910
968 2348 1847 l62 125 -70 134 c-232 445 -509 783 -898 1096 -585 470 -1317
771 -2125 872 -145 19 -531 43 -615 39 -16 0 -100 -4 -185 -9z m640 -655 c596
-61 1149 -250 1620 -552 102 -65 313 -222 307 -228 -2 -3 -37 14 -78 37 -124
71 -466 233 -614 292 -419 166 -815 264 -1250 308 -155 16 -575 16 -730 0
-689 -69 -1370 -306 -2015 -701 -69 -42 -138 -84 -155 -94 -43 -26 93 102 208
195 365 295 831 521 1337 649 228 58 440 88 795 114 92 7 429 -5 575 -20z
m-198 -364 c825 -43 1607 -329 2438 -891 204 -138 290 -204 290 -223 0 -18
-126 -205 -206 -306 -86 -107 -292 -315 -404 -406 -578 -474 -1361 -761 -2155
-788 -119 -4 -128 -4 -60 4 44 5 114 17 155 26 497 110 876 494 981 997 28
133 30 351 5 481 -22 114 -65 251 -76 240 -4 -5 -15 -32 -24 -60 -64 -197
-277 -346 -496 -348 -299 -1 -540 237 -540 534 0 245 167 458 409 520 l66 17
-60 27 c-652 297 -1425 4 -1707 -647 -273 -630 -7 -1353 610 -1662 132 -65
316 -114 487 -128 32 -3 29 -4 -15 -5 -30 -1 -116 3 -190 8 -780 58 -1461 314
-2027 762 -114 90 -313 287 -412 408 -111 135 -208 279 -196 288 6 4 75 56
155 116 681 513 1400 849 2085 975 224 41 349 54 670 69 17 1 114 -3 217 -8z"/>
</g>
</svg>
